#tb 0: 1/25
#media_type 0: video
#codec_id 0: vp8
#dimensions 0: 352x288
#sar 0: 0/1
0,         -1,          0,        1,    21891, 0xd088d2f4
0,          0,          1,        1,     5992, 0x299da906
0,          1,          2,        1,     5602, 0xb532f781
0,          2,          3,        1,     5550, 0x208f68ae
0,          3,          4,        1,     5662, 0xb736e53d
0,          4,          5,        1,     5664, 0xbb09c8bc
0,          5,          6,        1,     5632, 0x0e33cfd8
0,          6,          7,        1,     5815, 0xe86206eb
0,          7,          8,        1,     5735, 0x8805fe5b
0,          8,          9,        1,     5761, 0x806b0ffd
0,          9,         10,        1,     5831, 0x3689f8ab
0,         10,         11,        1,     6015, 0xb0706af7
0,         11,         12,        1,    22160, 0x2fe37f34
0,         12,         13,        1,     6536, 0x113b782e
0,         13,         14,        1,     6425, 0x4a1af9d1
0,         14,         15,        1,     6265, 0xb1d8e362
0,         15,         16,        1,     6268, 0xb6c3fe19
0,         16,         17,        1,     6308, 0x5a930236
0,         17,         18,        1,     6582, 0xfa279c92
0,         18,         19,        1,     6670, 0x7d6db333
0,         19,         20,        1,     6898, 0x90fe55aa
0,         20,         21,        1,     7141, 0xe4ca9fd2
0,         21,         22,        1,     7118, 0x861da232
0,         22,         23,        1,     7173, 0x30c8c992
0,         23,         24,        1,    26290, 0xaa2ccf3b
0,         24,         25,        1,     7792, 0xd679cce2
0,         25,         26,        1,     7492, 0x26b4581d
0,         26,         27,        1,     7625, 0xf92f9221
0,         27,         28,        1,     7609, 0xf5d9a670
0,         28,         29,        1,     7826, 0x60b4ec01
0,         29,         30,        1,     8053, 0x6e73272f
0,         30,         31,        1,     7967, 0xa3885276
0,         31,         32,        1,     8059, 0xa4de62f3
0,         32,         33,        1,     8165, 0x52a04f34
0,         33,         34,        1,     8244, 0x0e3f7048
0,         34,         35,        1,     8356, 0xcf2dd540
0,         35,         36,        1,    29615, 0x54caea25
0,         36,         37,        1,     8909, 0x26341649
0,         37,         38,        1,     8826, 0x4509cb1b
0,         38,         39,        1,     8440, 0x8e30e216
0,         39,         40,        1,     8562, 0x0c3d63e3
0,         40,         41,        1,     8690, 0x9c829b99
0,         41,         42,        1,     8718, 0xaa9db3e2
0,         42,         43,        1,     8869, 0xf3bfb139
0,         43,         44,        1,     8670, 0x53153f62
0,         44,         45,        1,     8868, 0x3c41bc28
0,         45,         46,        1,     8817, 0x944fa212
0,         46,         47,        1,     8897, 0x9e76d68e
0,         47,         48,        1,    31643, 0xb40a67da
0,         48,         49,        1,     9596, 0xe9272233
